HIERARCHY
ROOT Hips
{
	OFFSET	0.000000	0.000000	0.000000
	CHANNELS 6 Xposition Yposition Zposition Zrotation Xrotation Yrotation
	JOINT LeftUpLeg
	{
		OFFSET	12.830505	-7.049846	-1.643436
		CHANNELS 3 Zrotation Xrotation Yrotation
		JOINT LeftLeg
		{
			OFFSET	0.620834	-39.957502	-1.919341
			CHANNELS 3 Zrotation Xrotation Yrotation
			JOINT LeftFoot
			{
				OFFSET	-0.413890	-44.704761	-3.870325
				CHANNELS 3 Zrotation Xrotation Yrotation
				JOINT LeftFootHeel
				{
					OFFSET	0.164738	-8.918194	-6.555130
					CHANNELS 3 Zrotation Xrotation Yrotation
					End Site
					{
						OFFSET	-0.604053	0.000000	21.044330
					}
				}
			}
		}
	}
	JOINT RightUpLeg
	{
		OFFSET	-12.830505	-7.049846	-1.643436
		CHANNELS 3 Zrotation Xrotation Yrotation
		JOINT RightLeg
		{
			OFFSET	-0.620834	-39.957502	-1.919341
			CHANNELS 3 Zrotation Xrotation Yrotation
			JOINT RightFoot
			{
				OFFSET	0.413890	-44.704761	-3.870325
				CHANNELS 3 Zrotation Xrotation Yrotation
				JOINT RightFootHeel
				{
					OFFSET	-0.164738	-8.918194	-6.555130
					CHANNELS 3 Zrotation Xrotation Yrotation
					End Site
					{
						OFFSET	0.604053	0.000000	21.044330
					}
				}
			}
		}
	}
	JOINT Spine
	{
		OFFSET	0.000000	12.498171	1.820647
		CHANNELS 3 Zrotation Xrotation Yrotation
		JOINT Spine1
		{
			OFFSET	0.000000	7.620000	0.000000
			CHANNELS 3 Zrotation Xrotation Yrotation
			JOINT LeftShoulder
			{
				OFFSET	9.167800	29.136339	-5.551221
				CHANNELS 3 Zrotation Xrotation Yrotation
				JOINT LeftArm
				{
					OFFSET	12.133453	-3.880866	1.461963
					CHANNELS 3 Zrotation Xrotation Yrotation
					JOINT LeftForeArm
					{
						OFFSET	2.507115	-31.664910	-1.069404
						CHANNELS 3 Zrotation Xrotation Yrotation
						JOINT LeftHand
						{
							OFFSET	4.116172	-24.512624	5.009439
							CHANNELS 3 Zrotation Xrotation Yrotation
							End Site
							{
								OFFSET	-0.213136	-10.931856	2.182134
							}
						}
					}
				}
			}
			JOINT RightShoulder
			{
				OFFSET	-9.167800	29.136339	-5.551221
				CHANNELS 3 Zrotation Xrotation Yrotation
				JOINT RightArm
				{
					OFFSET	-12.133453	-3.880866	1.461963
					CHANNELS 3 Zrotation Xrotation Yrotation
					JOINT RightForeArm
					{
						OFFSET	-2.507115	-31.664910	-1.069404
						CHANNELS 3 Zrotation Xrotation Yrotation
						JOINT RightHand
						{
							OFFSET	-4.116172	-24.512624	5.009439
							CHANNELS 3 Zrotation Xrotation Yrotation
							End Site
							{
								OFFSET	0.213136	-10.931856	2.182134
							}
						}
					}
				}
			}
			JOINT Neck
			{
				OFFSET	0.000000	32.926275	-3.635654
				CHANNELS 3 Zrotation Xrotation Yrotation
				JOINT Head
				{
					OFFSET	0.000000	12.481178	4.646143
					CHANNELS 3 Zrotation Xrotation Yrotation
					End Site
					{
						OFFSET	0.000000	17.715205	-2.222063
					}
				}
			}
		}
	}
}
MOTION
Frames:     11
Frame Time: 0.016667
-10.149789	97.236534	0.271493	-16.829971	-30.136106	26.208817	31.586712	-10.393035	10.482926	26.734104	52.958668	-28.509571	-2.329156	-31.072683	10.619768	0.	0.	0.	-13.945170	-57.733746	-8.580657	35.356449	53.209450	-38.073063	10.850321	9.035585	-0.766723	0.	0.	0.	0.000001	-0.000001	0.000002	10.932273	26.410067	-4.694161	6.132139	0.987572	5.136493	45.369740	-16.192465	50.590271	-30.834520	-43.276001	-18.875490	30.968584	6.749541	-12.319108	-0.537033	0.721577	-8.011249	-3.667569	28.541401	-30.458611	2.831371	-0.936010	-5.909641	-15.316133	15.300293	7.540170	13.311934	11.405332	-6.689727	10.651485	0.379110	21.963955	
-9.859053	96.821453	0.267887	-15.623433	-29.091061	27.848986	29.111984	-11.884964	9.484594	28.225012	53.733803	-29.566570	-1.680284	-32.013016	11.460882	0.	0.	0.	-7.054981	-51.776569	-3.427798	31.949068	55.073776	-33.809177	11.229205	6.750957	0.476552	0.	0.	0.	0.000001	0.000002	-0.000003	8.818940	24.702372	-2.067739	6.697255	2.516512	6.154021	38.740719	-12.798681	43.735081	-20.825764	-30.643730	-4.420192	32.257511	3.854609	-11.400690	1.059045	1.904949	-7.214020	5.738114	22.827007	-25.077913	0.972759	-2.240670	-11.876584	-12.132386	13.578574	7.605283	13.472590	9.727189	-5.709726	11.918444	0.414253	18.303576	
-9.969233	96.478838	0.448144	-14.848479	-28.679329	28.669693	27.846933	-12.467245	7.481802	27.635370	54.842960	-28.342442	-1.705963	-32.515476	11.847704	0.	0.	0.	-3.887592	-47.493515	-2.292095	29.536072	55.729668	-29.946699	11.472070	5.169997	-0.740145	0.	0.	0.	0.000001	0.000000	-0.000000	7.655530	23.796169	-0.515765	6.569015	4.085179	5.725461	33.026241	-7.326887	37.315956	-18.191639	-28.986820	2.127504	33.699833	2.236328	-9.955971	1.696400	3.132210	-6.625663	10.928637	19.289406	-18.663807	-1.269018	-5.164129	-15.608248	-7.731390	11.248030	6.928827	13.355192	8.972700	-5.358308	12.387434	1.091371	16.974144	
-10.003229	96.429665	0.783284	-14.156700	-28.194641	28.721355	27.227076	-12.113128	6.917302	26.135292	55.068577	-27.039124	-1.416642	-32.706364	12.293534	0.	0.	0.	-1.386697	-43.540997	-1.436574	28.395452	56.190720	-27.419247	11.189639	3.441450	-2.033691	0.	0.	0.	0.000001	0.000000	0.000003	6.510195	22.493851	0.481140	6.355459	6.652236	6.064286	27.263239	-3.767687	32.706970	-15.704022	-26.982386	4.322752	34.241177	1.691098	-8.475231	1.961261	4.775542	-5.023633	12.199567	16.891079	-11.044333	-2.443819	-8.484916	-16.256857	-1.286353	8.006566	6.436131	12.978759	9.625819	-5.078896	12.536411	0.833128	17.009493	
-9.948683	96.530289	1.047983	-12.943450	-27.528019	28.111685	26.797935	-10.879759	7.843413	23.376627	54.785862	-24.983936	-0.863772	-32.603729	12.240279	0.	0.	0.	0.543366	-37.806713	-0.827607	27.636330	57.081055	-26.920391	10.956670	1.217511	-1.625170	0.	0.	0.	-0.000000	-0.000000	0.000004	5.270999	20.832975	1.157917	5.447067	10.017848	8.732416	22.022949	1.962518	31.387981	-18.360456	-23.281916	-0.911750	33.741936	2.177229	-8.998109	1.173239	7.298326	-1.136517	9.113491	13.055228	-4.760927	-3.160283	-14.470917	-8.836366	8.269045	4.510896	7.892512	11.464583	10.452713	-3.371258	12.944037	0.376374	15.890673	
-9.908389	96.590014	1.065961	-12.557458	-27.435213	27.878630	26.699451	-10.362945	8.239539	22.585806	54.590641	-24.254509	-0.810641	-32.505871	11.975248	0.	0.	0.	0.932678	-35.663975	-1.429586	26.357027	57.557163	-26.154921	11.294682	0.626948	-0.947308	0.	0.	0.	-0.000001	-0.000000	-0.000001	5.098424	20.567173	1.723988	5.000284	10.643237	9.353401	20.513735	3.578886	30.782881	-18.786522	-22.160200	-2.299500	33.500401	2.555722	-9.415845	0.763228	7.775261	-0.345111	7.394768	11.785022	-3.393550	-2.968985	-16.870848	-5.792186	9.606029	4.392310	8.491146	10.837837	10.418902	-3.060364	13.088887	0.321002	15.660919	
-9.762758	96.625234	0.885004	-11.869750	-27.349667	27.401850	26.382626	-9.561329	8.875334	21.314665	54.479557	-22.889420	-0.675013	-32.353405	11.466289	0.	0.	0.	1.373659	-31.319368	-3.459926	20.969824	56.855488	-20.617926	12.700458	1.170783	-1.072645	0.	0.	0.	-0.000000	0.000000	0.000004	4.864656	20.161114	3.396935	4.206064	11.663927	9.970021	17.891794	6.115644	28.392805	-18.823687	-19.918505	-2.554400	33.346447	2.994027	-9.468556	0.212549	8.262051	0.549964	3.283851	8.875237	-0.748071	-2.095875	-20.826790	-0.664370	8.136759	4.985396	9.054017	10.489518	9.987549	-2.108685	12.574374	0.526109	14.311300	
-9.582959	96.815116	1.048251	-11.202993	-27.096785	26.983702	26.032019	-8.433760	9.034343	19.189835	53.943287	-20.752571	-0.494522	-32.117100	11.181877	0.	0.	0.	1.551395	-27.422108	-5.819031	19.152353	59.780834	-19.225292	12.976759	-1.933640	1.077150	0.	0.	0.	-0.000002	0.000001	0.000003	4.537198	19.679398	4.855440	3.601732	12.057206	10.751473	14.332344	7.633964	24.153326	-16.578766	-17.784348	1.006309	33.638397	3.021374	-8.721968	-0.113880	8.150311	1.496824	-1.249967	5.632628	1.605046	-1.065268	-23.063353	2.871747	2.591859	5.928807	9.178399	10.289407	10.166684	-2.247575	11.776775	0.767758	14.420297	
-9.492531	97.024464	0.943897	-10.204762	-26.444891	26.618240	24.686008	-7.624645	8.745021	17.187256	53.217426	-18.068106	-0.398638	-31.558350	11.021685	0.	0.	0.	1.754486	-22.885445	-8.793731	14.729662	61.051933	-12.492027	12.265281	-3.590065	0.031172	0.	0.	0.	0.000001	-0.000001	0.000003	4.294227	19.187347	6.887655	2.765277	11.262425	11.494965	7.154311	9.519594	18.140261	-11.710675	-14.329067	9.203179	34.678734	2.996724	-7.002563	-0.421757	6.617466	2.251588	-8.392928	-0.009612	2.862873	0.742139	-22.892553	6.397597	-7.030344	7.710474	9.080719	9.568227	9.723089	-1.488293	10.495957	1.189514	14.150933	
-9.667595	97.283295	0.894359	-9.506617	-26.008993	26.546389	23.629602	-7.090940	8.368341	16.326771	52.281849	-16.740221	-0.507867	-30.985247	11.134362	0.	0.	0.	1.550520	-20.598377	-8.697978	15.706775	61.479996	-12.857741	12.258512	-4.258398	-0.195187	0.	0.	0.	-0.000001	-0.000000	0.000002	4.362889	18.824596	7.876113	2.157105	10.490547	11.750739	2.745929	10.561441	16.788378	-9.253298	-11.575638	13.103110	34.485542	3.993323	-6.201289	-0.728038	5.079435	2.449627	-12.512122	-3.517898	1.726795	1.799863	-21.741312	7.980211	-11.729320	8.641295	8.897768	9.166134	9.568562	-1.303791	9.911068	1.489385	14.156659	
-9.952978	97.687301	0.886881	-8.722122	-25.756920	26.638086	22.738487	-6.230381	7.867014	15.187185	50.935463	-15.547609	-0.468562	-30.194344	11.472198	0.	0.	0.	1.369454	-18.124828	-7.732412	17.479700	61.124321	-15.175361	13.111658	-4.617980	0.472255	0.	0.	0.	0.000002	0.000001	0.000001	4.576523	18.610764	8.542747	1.263062	9.780560	11.961368	1.777592	11.632095	14.964825	-9.431142	-8.951064	16.261196	33.772743	5.641068	-5.481258	-1.198472	3.647144	2.820851	-15.815881	-6.539052	-0.784482	2.218968	-20.901236	8.734373	-14.603397	9.548108	9.349088	9.056574	9.507046	-1.231058	9.388171	1.875325	13.255189	
